 <svg viewBox="0 0 24 24" xmlns="http://www.w3.org/2000/svg">
        <title>house-retro</title>
        <polyline points="21.75 12 21.75 22.5 17.25 22.5" style="fill: none; stroke: white; stroke-linecap: round; stroke-linejoin: round; stroke-width: 1.5px;"></polyline>
        <polyline points="2.25 12 2.25 22.5 6.75 22.5" style="fill: none; stroke: white; stroke-linecap: round; stroke-linejoin: round; stroke-width: 1.5px;"></polyline>
        <rect x="3.75" y="1.5" width="3" height="3" style="fill: none; stroke: white; stroke-linecap: round; stroke-linejoin: round; stroke-width: 1.5px;"></rect>
        <line x1="3" y1="1.5" x2="7.5" y2="1.5" style="fill: none; stroke: white; stroke-linecap: round; stroke-linejoin: round; stroke-width: 1.5px;"></line>
        <rect x="17.25" y="1.5" width="3" height="3" style="fill: none; stroke: white; stroke-linecap: round; stroke-linejoin: round; stroke-width: 1.5px;"></rect>
        <line x1="16.5" y1="1.5" x2="21" y2="1.5" style="fill: none; stroke: white; stroke-linecap: round; stroke-linejoin: round; stroke-width: 1.5px;"></line>
        <path d="M20.25,12h3L21.991,5.706A1.5,1.5,0,0,0,20.52,4.5H14.813" style="fill: none; stroke: white; stroke-linecap: round; stroke-linejoin: round; stroke-width: 1.5px;"></path>
        <path d="M3.75,12h-3L2.009,5.706A1.5,1.5,0,0,1,3.48,4.5H9.187" style="fill: none; stroke: white; stroke-linecap: round; stroke-linejoin: round; stroke-width: 1.5px;"></path>
        <polyline points="17.25 7.75 17.25 22.5 6.75 22.5 6.75 7.75" style="fill: none; stroke: white; stroke-linecap: round; stroke-linejoin: round; stroke-width: 1.5px;"></polyline>
        <path d="M18.75,9.75,13.2,2.35a1.5,1.5,0,0,0-2.4,0L5.25,9.75" style="fill: none; stroke: white; stroke-linecap: round; stroke-linejoin: round; stroke-width: 1.5px;"></path>
        <path d="M14.25,22.5H9.75v-6a1.5,1.5,0,0,1,1.5-1.5h1.5a1.5,1.5,0,0,1,1.5,1.5Z" style="fill: none; stroke: white; stroke-linecap: round; stroke-linejoin: round; stroke-width: 1.5px;"></path>
        <line x1="0.75" y1="22.5" x2="23.25" y2="22.5" style="fill: none; stroke: white; stroke-linecap: round; stroke-linejoin: round; stroke-width: 1.5px;"></line>
        <path d="M12,9.375a.375.375,0,0,1,.375.375" style="fill: none; stroke: white; stroke-linecap: round; stroke-linejoin: round; stroke-width: 1.5px;"></path>
        <path d="M11.625,9.75A.375.375,0,0,1,12,9.375" style="fill: none; stroke: white; stroke-linecap: round; stroke-linejoin: round; stroke-width: 1.5px;"></path>
        <path d="M12,10.125a.375.375,0,0,1-.375-.375" style="fill: none; stroke: white; stroke-linecap: round; stroke-linejoin: round; stroke-width: 1.5px;"></path>
        <path d="M12.375,9.75a.375.375,0,0,1-.375.375" style="fill: none; stroke: white; stroke-linecap: round; stroke-linejoin: round; stroke-width: 1.5px;"></path>
    </svg>