 <svg viewBox="0 0 24 24" xmlns="http://www.w3.org/2000/svg">
        <title>real-estate-sign-house-rent</title>
        <line x1="21.75" y1="22.75" x2="21.75" y2="16.75" style="fill: none; stroke: white; stroke-linecap: round; stroke-linejoin: round; stroke-width: 1.5px;"></line>
        <line x1="20.25" y1="16.75" x2="23.25" y2="16.75" style="fill: none; stroke: white; stroke-linecap: round; stroke-linejoin: round; stroke-width: 1.5px;"></line>
        <line x1="2.25" y1="22.75" x2="2.25" y2="16.75" style="fill: none; stroke: white; stroke-linecap: round; stroke-linejoin: round; stroke-width: 1.5px;"></line>
        <path d="M2.25,16.75H3.375a1.875,1.875,0,0,1,0,3.75H2.25" style="fill: none; stroke: white; stroke-linecap: round; stroke-linejoin: round; stroke-width: 1.5px;"></path>
        <line x1="5.25" y1="22.75" x2="3" y2="20.5" style="fill: none; stroke: white; stroke-linecap: round; stroke-linejoin: round; stroke-width: 1.5px;"></line>
        <polyline points="14.25 22.75 14.25 16.75 17.25 22.75 17.25 16.75" style="fill: none; stroke: white; stroke-linecap: round; stroke-linejoin: round; stroke-width: 1.5px;"></polyline>
        <path d="M11.25,22.75H9.75a1.5,1.5,0,0,1-1.5-1.5v-3a1.5,1.5,0,0,1,1.5-1.5h1.5" style="fill: none; stroke: white; stroke-linecap: round; stroke-linejoin: round; stroke-width: 1.5px;"></path>
        <line x1="8.25" y1="19.75" x2="11.25" y2="19.75" style="fill: none; stroke: white; stroke-linecap: round; stroke-linejoin: round; stroke-width: 1.5px;"></line>
        <line x1="3.75" y1="13.75" x2="3.75" y2="10.75" style="fill: none; stroke: white; stroke-linecap: round; stroke-linejoin: round; stroke-width: 1.5px;"></line>
        <line x1="17.25" y1="10.75" x2="17.25" y2="13.75" style="fill: none; stroke: white; stroke-linecap: round; stroke-linejoin: round; stroke-width: 1.5px;"></line>
        <polyline points="0.75 9.25 10.5 1 20.25 9.25" style="fill: none; stroke: white; stroke-linecap: round; stroke-linejoin: round; stroke-width: 1.5px;"></polyline>
        <polyline points="15.75 1.75 18.75 1.75 18.75 4.75" style="fill: none; stroke: white; stroke-linecap: round; stroke-linejoin: round; stroke-width: 1.5px;"></polyline>
    </svg>