<svg xmlns="http://www.w3.org/2000/svg" viewBox="0 0 24 24">
    <title>old-people-man-3</title>
    <path d="M1.5,23.25a9.756,9.756,0,0,1,13.5-9" style="fill: none; stroke: white; stroke-linecap: round; stroke-linejoin: round; stroke-width: 1.5px;"></path>
    <polyline points="13.5 23.25 11.25 13.5 9 23.25" style="fill: none; stroke: white; stroke-linecap: round; stroke-linejoin: round; stroke-width: 1.5px;"></polyline>
    <path d="M15.629,8.9A3.75,3.75,0,1,0,16.5,1.5a3.735,3.735,0,0,0-1.858.493S12.583,6,16.5,6" style="fill: none; stroke: white; stroke-linecap: round; stroke-linejoin: round; stroke-width: 1.5px;"></path>
    <path d="M6.871,8.9A3.75,3.75,0,1,1,6,1.5a3.735,3.735,0,0,1,1.858.493S9.917,6,6,6" style="fill: none; stroke: white; stroke-linecap: round; stroke-linejoin: round; stroke-width: 1.5px;"></path>
    <path d="M16.5,6A5.25,5.25,0,0,1,6,6" style="fill: none; stroke: white; stroke-linecap: round; stroke-linejoin: round; stroke-width: 1.5px;"></path>
    <path d="M14.642,1.993h0a5.25,5.25,0,0,0-6.784,0h0" style="fill: none; stroke: white; stroke-linecap: round; stroke-linejoin: round; stroke-width: 1.5px;"></path>
    <path d="M18,14.25a2.25,2.25,0,0,1,4.5,0v9" style="fill: none; stroke: white; stroke-linecap: round; stroke-linejoin: round; stroke-width: 1.5px;"></path>
</svg>